<?xml version="1.0" standalone="no"?>
<!DOCTYPE svg PUBLIC "-//W3C//DTD SVG 20010904//EN"
 "http://www.w3.org/TR/2001/REC-SVG-20010904/DTD/svg10.dtd">
<svg version="1.0" xmlns="http://www.w3.org/2000/svg"
 width="256.000000pt" height="256.000000pt" viewBox="0 0 256.000000 256.000000"
 preserveAspectRatio="xMidYMid meet">

<g transform="translate(0.000000,256.000000) scale(0.100000,-0.100000)"
fill="#637B8C" stroke="none">
<path d="M953 2520 c-72 -20 -135 -38 -138 -41 -3 -4 3 -40 15 -80 11 -40 20
-78 20 -84 0 -5 -33 -27 -74 -48 -40 -21 -95 -53 -122 -72 l-49 -35 -65 65
-65 65 -102 -102 -103 -103 65 -65 65 -65 -35 -49 c-19 -27 -51 -82 -72 -122
-21 -41 -43 -74 -48 -74 -6 0 -44 9 -84 20 -40 12 -76 18 -79 15 -4 -3 -22
-66 -42 -139 l-36 -134 84 -23 85 -24 0 -145 1 -145 -85 -24 -85 -24 36 -133
c20 -73 38 -135 41 -138 3 -3 38 4 79 14 41 11 80 20 85 20 6 0 27 -33 48 -74
21 -40 53 -95 72 -122 l35 -49 -65 -65 -65 -65 103 -103 102 -102 65 65 65 65
49 -35 c27 -19 82 -51 122 -72 41 -21 74 -42 74 -48 0 -5 -9 -44 -20 -85 -10
-41 -17 -76 -14 -79 3 -3 65 -21 139 -41 l133 -36 22 85 22 86 147 -1 146 -1
24 -84 23 -85 134 36 c73 20 136 38 139 42 3 3 -3 39 -15 79 -11 40 -20 78
-20 84 0 5 33 27 74 48 40 21 95 53 122 72 l49 35 65 -65 65 -65 102 102 103
103 -65 65 -65 65 35 49 c19 27 51 82 72 122 21 41 43 74 48 74 6 0 44 -9 84
-20 40 -12 76 -19 79 -16 2 3 21 66 42 140 l37 134 -86 23 -86 22 0 147 0 148
86 22 85 22 -36 133 c-20 74 -38 136 -41 139 -3 3 -38 -4 -79 -14 -41 -11 -79
-20 -85 -20 -5 0 -27 33 -48 74 -21 40 -53 95 -72 122 l-35 49 65 65 65 65
-102 102 -103 103 -65 -65 -65 -65 -49 35 c-27 19 -82 51 -122 72 -41 21 -74
43 -74 48 0 6 9 44 20 85 10 41 17 76 14 79 -3 3 -65 21 -138 41 l-134 36 -23
-85 -24 -84 -145 0 -145 0 -22 79 c-13 43 -24 81 -26 84 -1 3 -61 -11 -134
-30z m497 -415 c333 -70 592 -332 656 -663 80 -419 -160 -828 -566 -963 -78
-26 -116 -32 -216 -37 -138 -6 -218 6 -338 49 -223 81 -414 271 -495 495 -42
116 -55 204 -49 340 4 98 11 136 37 214 96 287 333 501 626 565 82 18 258 18
345 0z"/>
<path d="M1241 1956 c-89 -49 -53 -186 49 -186 103 0 141 138 50 185 -35 18
-67 19 -99 1z"/>
<path d="M1317 1711 c-14 -17 -48 -68 -77 -115 -56 -91 -55 -91 -164 -113 -39
-9 -40 -9 -70 -100 -17 -50 -34 -95 -38 -99 -4 -3 -36 -8 -70 -9 -73 -2 -127
-26 -174 -77 -52 -54 -67 -95 -67 -174 0 -61 4 -79 29 -124 96 -169 336 -172
439 -6 27 44 30 58 30 130 0 57 -5 90 -17 112 -20 36 -63 83 -98 105 l-24 16
24 77 c17 55 28 75 38 71 7 -3 46 -29 87 -57 59 -43 71 -56 64 -70 -17 -31
-10 -123 15 -194 38 -111 64 -164 80 -164 25 0 27 17 11 79 -24 95 -17 211 14
211 4 0 26 -13 49 -30 l41 -29 -16 -47 c-33 -96 -1 -210 79 -278 119 -102 320
-62 388 79 51 105 26 230 -60 308 -101 91 -218 90 -351 -5 -13 -9 -23 -7 -48
11 -17 12 -31 26 -31 30 0 4 32 23 71 42 73 35 129 86 129 117 0 25 -114 261
-145 300 -22 27 -32 32 -70 32 -36 0 -48 -5 -68 -29z m62 -212 c23 -29 41 -55
41 -58 0 -4 -13 -15 -30 -24 -16 -10 -50 -33 -74 -52 l-44 -33 -61 41 c-33 23
-61 45 -61 50 0 4 20 7 44 7 43 0 47 3 92 60 26 33 48 60 50 60 1 0 21 -23 43
-51z m-431 -273 c1 -2 -14 -49 -35 -105 -29 -82 -34 -104 -23 -111 25 -15 35
0 70 100 19 55 37 100 41 100 4 0 22 -12 39 -26 102 -86 93 -250 -18 -328 -60
-42 -148 -48 -212 -14 -63 34 -102 93 -108 162 -9 114 52 199 163 227 26 6 74
3 83 -5z m813 -17 c145 -73 145 -289 0 -366 -149 -79 -331 54 -301 219 12 65
21 66 97 11 84 -61 111 -76 123 -68 23 14 5 35 -75 91 -48 34 -84 65 -82 73 3
18 57 51 100 61 41 10 92 2 138 -21z"/>
</g>
</svg>
